<?xml version="1.0" encoding="utf-8"?>
<!-- Generator: Adobe Illustrator 21.0.2, SVG Export Plug-In . SVG Version: 6.00 Build 0)  -->
<svg version="1.1" id="Layer_1" xmlns="http://www.w3.org/2000/svg" xmlns:xlink="http://www.w3.org/1999/xlink" x="0px" y="0px"
	 viewBox="0 0 4028 608" style="enable-background:new 0 0 4028 608;" xml:space="preserve">
<g>
	<g>
		<g>
			<path d="M94.4,192.7c0,104.3,72.5,124.8,122.8,124.8c36.9,0,91.3-6.8,133-44.5l2.7,2.7c-31.1,30.1-81.1,45.5-135.8,45.5
				c-93.4,0-192.9-47.5-192.9-128.6c0-81.7,99.5-128.6,192.9-128.6c27.4,0,45.8,4.4,68.1,12c4.8,1.7,10.3,2.7,15.4,2.7
				c9.2,0,17.4-3.8,17.8-15h3.8l26.7,92.3h-4.1l-5.1-10.3c-27-50.3-67-78-122.4-78C166.9,67.9,94.4,89.8,94.4,192.7z"/>
			<path d="M369.5,127.9c19.4,0,38.8,0.6,58.5,0.6c19.4,0,39.1-0.6,58.8-0.6v2.9h-33.3v88.9h140.4v-88.9h-33.3v-2.9
				c19.4,0,38.8,0.6,58.5,0.6c19.4,0,39.1-0.6,58.8-0.6v2.9h-33.3v181.8h33.3v2.9c-19.7,0-39.4-0.6-58.8-0.6
				c-19.7,0-39.1,0.6-58.5,0.6v-2.9h33.3v-90H453.4v90h33.3v2.9c-19.7,0-39.4-0.6-58.8-0.6c-19.7,0-39.1,0.6-58.5,0.6v-2.9h33.3
				V130.8h-33.3V127.9z"/>
			<path d="M927.1,312.6l-35.9-60.8H751.6l-37.1,60.8h33.3v2.9c-19.7,0-16.5-0.6-36.2-0.6c-19.4,0-14.5,0.6-33.9,0.6v-2.9h33.3
				l109.7-179.2l-1.4-2.6h-40v-2.9c6.7,0,66,0.6,72.7,0.6c6.9,0,12.4-0.6,19.4-0.6l109.4,184.7h33.3v2.9
				c-14.8,0.3-44.6-0.6-59.6-0.6c-21.4,0-36.2,0.6-61.1,0.6v-2.9H927.1z M753.7,248.9h135.8l-66.9-112.6L753.7,248.9z"/>
			<path d="M1042.6,130.8c-45.2,0-62.8,23.2-75.6,55.6h-2.9l17.4-62h2.9c-0.3,3.2,11.9,3.5,31.6,3.5h122.2c34.2,0,58.8-0.6,58.2-3.2
				h2.9l17.4,61.7h-2.9c-9.8-32.4-30.4-55.6-75.6-55.6H1115v181.8h33.3v2.9c-19.7,0-39.4-0.6-58.8-0.6c-19.7,0-39.4,0.6-58.5,0.6
				v-2.9h33.3V130.8H1042.6z"/>
			<path d="M1377.3,319.8c-70.9,0-154.9-32.7-154.9-98.1c0-65.7,84-98.1,154.9-98.1c71.8,0,154.6,32.4,154.6,98.1
				C1531.8,287.1,1449.1,319.8,1377.3,319.8z M1377.3,126.4c-63.1,0-97,29.2-97,95.2c0,67.5,33.9,95.2,97,95.2
				c63.1,0,96.7-27.8,96.7-95.2C1473.9,155.7,1440.4,126.4,1377.3,126.4z"/>
			<path d="M1583.1,312.6V142.4l-14.2-11.6h-19.7v-2.9c14.8,0,38.5,0.6,53.3,0.6s20.8-0.6,35.9-0.6l157.8,129.4V130.8h-33.3v-2.9
				c11.6,0,23.2,0.6,34.7,0.6s23.2-0.6,34.7-0.6v2.9h-33.3v189L1586,144.7v167.9h33.3v2.9c-11.6,0-23.2-0.6-34.7-0.6
				s-23.2,0.6-34.7,0.6v-2.9H1583.1z"/>
			<path d="M1981.5,311.7l85.5-238v-0.3h-52.7v-3.8h113.9l85.8,180.2l83.4-180.2h106.7v3.8h-43.4l85.5,238.4h43.1v3.8
				c-14.7,0-60.2-0.7-75.2-0.7c-15.4,0-59.2,0.7-74.6,0.7v-3.8h43.4l-83.8-237l-113.5,246.9L2069.4,78.5l-83.8,233.2h43.8v3.8
				c-23.6,0-22.9-0.7-46.9-0.7c-23.3,0-21.2,0.7-44.8,0.7v-3.8H1981.5z"/>
			<path d="M2633.3,319.8c-70.9,0-154.9-32.7-154.9-98.1c0-65.7,84-98.1,154.9-98.1c71.8,0,154.6,32.4,154.6,98.1
				C2787.9,287.1,2705.1,319.8,2633.3,319.8z M2633.3,126.4c-63.1,0-97,29.2-97,95.2c0,67.5,33.9,95.2,97,95.2s96.7-27.8,96.7-95.2
				C2730,155.7,2696.4,126.4,2633.3,126.4z"/>
			<path d="M3056.8,130.8v96.4c0,63.4-48.9,92.6-99.6,92.6c-51,0-125.9-5.5-125.9-92.6v-96.4H2798v-2.9c19.7,0,39.4,0.6,59.1,0.6
				c19.4,0,41.4-0.6,60.8-0.6v2.9h-33.3v96.4c0,74.4,45.2,89.7,72.7,89.7c48.9,0,96.7-28.1,96.7-89.7v-96.4h-33.6v-2.9
				c12.2,0,23.2,0.6,35.3,0.6c12.4,0,21.7-0.6,34.2-0.6v2.9H3056.8z"/>
			<path d="M3101.4,127.9c19.4,0,38.8,0.6,58.5,0.6c19.4,0,39.1-0.6,58.8-0.6v2.9h-33.3v181.8h33.3v2.9c-19.7,0-39.4-0.6-58.8-0.6
				c-19.7,0-39.1,0.6-58.5,0.6v-2.9h33.3V130.8h-33.3V127.9z"/>
			<path d="M3244.7,315.5v-2.9h33.3V130.8h-33.3v-2.9c19.4,0,38.8,0.6,58.5,0.6c19.4,0,39.1-0.6,58.8-0.6v2.9h-33.3v181.8h57.3
				c48.3,0,76.7-21.7,97.9-68.3h3.2l-28.4,75.6h-2.9c0.3-2.6-39.1-4.3-69.8-4.3H3244.7z"/>
			<path d="M3492.8,315.5v-2.9h33.3V130.8h-33.3v-2.9c19.4,0,38.8,0.6,58.5,0.6c19.4,0,39.1-0.6,58.8-0.6v2.9h-33.3v181.8h57.3
				c48.3,0,76.7-21.7,97.9-68.3h3.2l-28.4,75.6h-2.9c0.3-2.6-39.1-4.3-69.8-4.3H3492.8z"/>
			<path d="M3857.6,315.5c-12.2,0-45.7-0.6-57.9-0.6c-11.9,0-46.9,0.6-58.8,0.6v-2.9h33.3V130.8h-33.3v-2.9
				c12.4,0,46.6,0.6,59.1,0.6c12.2,0,46.6-0.6,58.8-0.6h50.4c30.7,0,52.4-0.3,52.1-2.9h2.9l17.7,61.4h-2.9
				c-12.7-32.4-40-55.6-69.8-55.6h-84.2v87.4h36.5c33,0,61.4-10.4,61.4-43.7h2.9v90h-2.9c-0.3-27.5-28.4-43.7-61.4-43.7h-36.5v91.8
				h83.4c42.3,0,71.8-26.1,84.5-58.5h2.9l-23.7,65.7h-2.9c0.9-4.3-30.1-4.3-60.8-4.3H3857.6z"/>
		</g>
	</g>
	<path d="M3843.8,106.8l-3.8,1.7l41.9-64c1.3-2.3,4.1-5,8.9-7.1c7.2-3.1,13.7-2.7,15.1,0.5c0.8,1.7,0.4,3.6-1.5,5.7L3843.8,106.8z"
		/>
</g>
<g>
	<g>
		<path d="M1962.3,546.5c3.1,2.7,7.2,3.2,11.8,1.9C1970.1,549.1,1966,548.3,1962.3,546.5z"/>
		<path d="M1958.5,537.8c4.1,3.9,9.7,6.7,15.3,5.6c3.4-0.7,5.3-2.4,6.3-4.6C1974.7,542.1,1965.6,541.5,1958.5,537.8z"/>
		<path d="M1975.6,478.1c0.5-7.6,0.7-15.1,0.3-22.7c-0.2-2.9-0.3-5.8-5.9-8.3c-7.2,4.7-6.9,9.6-6.5,14.4c0.6,6.3,1.1,12.6,1.6,18.8
			c1-0.2,2-0.4,3-0.5c0.3-0.1,0.6-0.2,0.9-0.2c0.5-0.2,1.1-0.4,1.8-0.5C1972,478.5,1973.6,478.1,1975.6,478.1z"/>
		<path d="M1983,565.5c-1,0.2-2.2,0.3-3.7,0.3c-0.4,0-0.7,0-1.1,0c1,6.2,2.4,12.5,4.6,18.7c0-4.2,0.1-8.4,0-12.6
			C1982.8,569.7,1982.8,567.6,1983,565.5z"/>
		<path d="M2049.8,474.9c3.7,0.1,7,0.5,10.2,1.1c0.5-6.7,1-13.4,1.8-20c0.5-4-2.5-7.5-7.9-11.1c-4.6,4.8-6,9.3-5.5,14
			C2048.9,464.2,2049.4,469.6,2049.8,474.9z"/>
		<path d="M2051.1,563.9c-1.1,0.2-2.5,0.4-4.2,0.4c-0.6,0-1.1,0-1.6,0c0,6.1-0.1,12.2-0.1,18.2
			C2048.3,576.2,2050,570.1,2051.1,563.9z"/>
		<path d="M2034.9,468c-8.3,9.8-14.3,16.8-20.3,24c-10.7-0.8-14.3-16.6-25.1-20.4c11-21.3,17.5-42.4,22.4-65.9
			C2019.3,426.4,2021.7,449.9,2034.9,468z"/>
		<path d="M2065.5,543.4c-3.1,2.7-7.2,3.2-11.8,1.9C2057.7,545.9,2061.8,545.1,2065.5,543.4z"/>
		<path d="M2091.7,500c-12.7-17.6-36.1-24.3-56.5-16.5c-7.5,2.9-13.2,8.3-20.6,13.3c-0.2-0.1-0.4-0.1-0.6-0.2v0.9
			c-0.4-0.1-0.9-0.1-1.4-0.1c-1.2,0-2.2,0.3-3.1,0.7v-0.6c-5.8-4.2-10.8-8.4-17-10.8c-20.4-7.8-43.7-1.2-56.5,16.5
			c-10.1,14-10.4,31.9-0.7,46.2c8.6,12.7,23.4,18.3,39.2,14.7c14.8-3.4,22.4-14,25.3-27.8c2.4-11.9-1.5-22.2-11.2-29.3
			c-5-2.2-10.1-3.7-15.4-2.9c-8.2,1.2-18.2,7.6-19.9,16.2c-1.7,8.8,6.3,14,13.9,15.5c7.4,1.5,14.8-0.6,11.5-9.6
			c-1.1-3,3.2-5.2,4.6-2.2c3.2,6.9,4.5,15.6-1.3,20.8c0.1-0.1,0.3-0.2,0.4-0.3c-8.1,12.7-18.4,13.7-29.9,7.2
			c-11.4-6.5-14.4-15.6-10.7-31.2c-0.2-4.3,1-8.2,3.6-11.2c5-9.7,15-13.2,25.6-14.6c13.6-1.9,22.4,4.3,29.9,12.6
			c0.4,0.2,0.7,0.5,1,1c0.1,0.2,0.2,0.3,0.3,0.5c0.2,0.1,0.3,0.2,0.5,0.3c0,0.2,0.1,0.4,0.1,0.7c0.2,0.4,0.5,0.7,0.7,1.1
			c0.2,0.2,0.4,0.4,0.5,0.7c0.7,1,1.5,2,2.3,2.9c0.2,0.1,0.4,0.2,0.7,0.3c0,0.1,0.1,0.1,0.1,0.2c0,0,0,0,0,0c0,0,0.1,0.1,0.1,0.1
			c0,0,0,0,0,0c0,0.1,0,0.2,0,0.3c1.8,2.2,3.8,4.3,5.7,6.4c0.3,0,0.5,0.1,0.8,0.1c0.3,0,0.5,0,0.8,0c1.6-3.1,3.3-6.1,5.4-9
			c0-0.1,0-0.2-0.1-0.2c0.2-0.3,0.4-0.5,0.6-0.8c-0.1-0.1-0.1-0.1-0.1-0.2c0.3-0.1,0.5-0.2,0.8-0.3c0.7-0.9,1.4-1.7,2.2-2.6
			c0.2-0.6,0.5-1.2,1.2-1.4c0.1-0.4,0.2-0.9,0.3-1.4c0.2-0.1,0.4-0.2,0.7-0.4c7.7-9,16.8-15.9,31.1-13.9
			c10.5,1.5,20.6,4.9,25.6,14.6c2.6,3,3.8,6.9,3.6,11.2c3.7,15.6,0.7,24.8-10.7,31.2c-11.5,6.5-21.8,5.5-29.9-7.2
			c0.1,0.1,0.3,0.2,0.4,0.3c-5.8-5.3-4.5-14-1.3-20.8c1.4-3,5.7-0.8,4.6,2.2c-3.3,8.9,4,11,11.5,9.6c7.5-1.5,15.6-6.7,13.9-15.5
			c-1.7-8.6-11.7-15-19.9-16.2c-5.3-0.8-10.4,0.7-15.4,2.9c-9.6,7.1-13.6,17.4-11.2,29.3c2.8,13.8,10.4,24.4,25.3,27.8
			c15.8,3.6,30.6-2,39.2-14.7C2102.1,531.9,2101.8,514,2091.7,500z"/>
		<path d="M2069.3,534.7c-4.1,3.9-9.7,6.7-15.3,5.6c-3.4-0.7-5.3-2.4-6.3-4.6C2053.1,539,2062.2,538.3,2069.3,534.7z"/>
	</g>
	<path d="M1371.1,511.2c152.7-13.6,304.7-13.9,456.5-20.4c25.4-1.1,51.5-1.7,76.4,14.7c-13.7,12.9-28.8,13.1-44.2,13.5
		c-125.2,3.2-250-8.7-375.1-7.8C1446.8,511.4,1409,511.2,1371.1,511.2z"/>
	<path d="M2648.9,515.7c-80.4,0-160.8-0.9-241.1,0.3c-69.8,1-139.5,3.9-209.3,6.6c-24.8,1-48.6-2.1-74.2-12.6
		c19.2-12.4,37.9-19.1,58.9-18C2338.3,500.1,2493.9,496.8,2648.9,515.7z"/>
</g>
</svg>
